<svg transform="scale(1)" version="1.1" id="Layer_1" xmlns="http://www.w3.org/2000/svg" xmlns:xlink="http://www.w3.org/1999/xlink" x="0px" y="0px" viewBox="0 0 500 500" xml:space="preserve" class="show_show__wrapper__graphic__5Waiy "><title>React</title><style type="text/css">
	.st0{fill:#000000;}
	.st1{fill:#9fa2a4;}
	.st2{fill:#ffffff;}
	.st3{fill:#1c7632;}
	.st4{fill:none;}
</style><g id="Floor"><path class="st0" d="M462.1,407.5H44.7c-0.4,0-0.8-0.3-0.8-0.8s0.3-0.8,0.8-0.8h417.4c0.4,0,0.8,0.3,0.8,0.8
		S462.5,407.5,462.1,407.5z"></path></g><g id="Board"><path class="st0" d="M330.6,259.7h-171c-0.4,0-0.7-0.3-0.8-0.8V158.6c0-0.4,0.3-0.7,0.8-0.8h171c0.4,0,0.7,0.3,0.8,0.8v100.4
		C331.3,259.3,331,259.7,330.6,259.7z M160.4,258.2h169.5v-98.9H160.4L160.4,258.2z"></path><rect class="st1" x="168" y="166.3" width="154.2" height="19.4"></rect><rect class="st1" x="275.9" y="191.7" width="46.3" height="58"></rect><rect class="st1" x="168" y="191.7" width="101.7" height="58"></rect></g><g id="Character_3"><path class="st2" d="M195.7,202.9c0,0,2.6-6.5,2.3-11.1s4.8-5.7,8.4-5.1s1.3,11.7,1.3,13.6s5.2-1.8,5.2-1.8s1.5,3.9-4.6,7.4
		s-6.9,3.9-6.9,3.9L195.7,202.9z"></path><path class="st0" d="M201.5,210.5c-0.2,0-0.4-0.1-0.6-0.3l-5.8-6.9c-0.2-0.2-0.2-0.5-0.1-0.8c0-0.1,2.6-6.4,2.3-10.8
		c-0.2-1.6,0.4-3.1,1.6-4.2c2-1.8,5.4-2,7.7-1.7c3.6,0.6,2.7,7.9,2.1,12.3c-0.1,0.8-0.2,1.5-0.2,1.9c1.5-0.5,2.8-1.2,4.1-2.2
		c0.2-0.1,0.4-0.2,0.6-0.1c0.2,0.1,0.4,0.2,0.5,0.4c0.1,0.2,1.7,4.5-5,8.3c-6.1,3.5-6.9,3.9-6.9,3.9
		C201.8,210.5,201.6,210.5,201.5,210.5z M196.6,202.7l5.1,6.1c0.7-0.4,2.4-1.4,6.3-3.6c3.6-2.1,4.4-4.2,4.4-5.4
		c-1.8,1.2-3.8,2.1-4.8,1.6c-0.4-0.2-0.7-0.7-0.6-1.2c0-0.4,0.1-1.2,0.2-2.2c0.3-2.8,1.2-10.3-0.9-10.6s-4.9-0.1-6.4,1.3
		c-0.8,0.8-1.3,1.9-1.1,3C199.1,195.8,197.2,201.2,196.6,202.7L196.6,202.7z"></path><g id="Left_Arm"><path class="st3" d="M193.9,203.2c1.8-2.6,8-0.1,8.2,0.9c0.9,6.4-1.7,11.4-4.2,17.5c-2.2,5.4-3.8,11.4-9.2,14.7
			c-0.8,0.6-1.7,0.8-2.6,0.7c-1.1-0.3-1.8-1.2-2-2.3c-0.7-3.6-5.3-0.1-4.4-3.7c1.4-5.2,4.9-9.9,7.2-14.6
			C188.2,213.4,193.9,203.2,193.9,203.2z"></path></g><g id="Character-2"><path class="st3" d="M216.4,188.2c0,0-22.7,25.1-33.8,37.5c-4.7,5.3-6.8,17.3,2.3,17.3s26-15,31.5-20.7S216.4,188.2,216.4,188.2z"></path><polygon class="st2" points="268.2,395.4 276.8,415.3 289.8,411.1 282.5,391.2 		"></polygon><path class="st0" d="M276.8,416.1c-0.3,0-0.6-0.2-0.7-0.5l-8.5-19.9c-0.2-0.4,0-0.8,0.4-1c0,0,0,0,0.1,0l14.3-4.2
			c0.4-0.1,0.8,0.1,0.9,0.5l7.3,19.9c0.1,0.2,0.1,0.4,0,0.6c-0.1,0.2-0.3,0.3-0.5,0.4l-13,4.1C276.9,416,276.9,416.1,276.8,416.1z
			 M269.3,395.9l8,18.5l11.6-3.7l-6.8-18.5L269.3,395.9z"></path><path class="st0" d="M275.1,411.1c0,0,0.3,10.7,1.4,10.7s34.2,0.3,33.1-2.5S288,406.9,288,406.9L275.1,411.1z"></path><path class="st0" d="M281.7,422.6c-3.1,0-5.2,0-5.3,0c-0.7,0-1.8,0-2.1-11.5c0-0.3,0.2-0.6,0.5-0.7l13-4.2c0.2-0.1,0.4-0.1,0.5,0
			c3.5,1.6,20.8,9.9,21.9,12.9c0.1,0.4,0.1,0.7-0.1,1C308.5,422.3,290.8,422.6,281.7,422.6z M276.8,421.1c5.3,0.1,29.1-0.1,32-1.7
			c-1.4-1.8-11.3-7.2-20.7-11.7l-12.2,3.9C276,415.6,276.3,420,276.8,421.1z M276.4,421.1L276.4,421.1z"></path><polygon class="st2" points="203.9,386.2 198.7,407.3 211.6,411.7 217.8,391.5 		"></polygon><path class="st0" d="M211.6,412.5c-0.1,0-0.2,0-0.2,0l-12.9-4.5c-0.4-0.1-0.6-0.5-0.5-0.9l5.2-21.1c0.1-0.2,0.2-0.4,0.4-0.5
			c0.2-0.1,0.4-0.1,0.6,0l13.9,5.3c0.4,0.1,0.6,0.5,0.4,0.9l-6.2,20.3c-0.1,0.2-0.2,0.4-0.4,0.5
			C211.9,412.5,211.7,412.5,211.6,412.5z M199.6,406.8l11.5,4l5.7-18.8l-12.5-4.7L199.6,406.8z"></path><path class="st0" d="M198.7,407.3c0,0-5.4,12.1-4.5,12.8c0.4,0.4,10.2,3.7,19,3.7c8,0,14.1-0.1,14.4-1.4c0.8-2.9-16-10.6-16-10.6
			L198.7,407.3z"></path><path class="st0" d="M213.2,424.5c-9,0-18.9-3.3-19.5-3.8s-1.3-1,4.3-13.7c0.2-0.4,0.6-0.5,0.9-0.4l12.9,4.5
			c5.3,2.4,17.4,8.4,16.5,11.5C227.9,424.2,224.5,424.5,213.2,424.5z M194.9,419.6c5.9,2.1,12.1,3.2,18.4,3.4c5.2,0,13,0,13.8-0.9
			c0.2-1.2-7.1-5.7-15.7-9.7l-12.2-4.2C197,413,195,418.2,194.9,419.6z M194.9,419.8L194.9,419.8z"></path><path class="st2" d="M260,266.6c0,0,23.6,97.1,29.5,134l-18,8.4c0,0-25.9-64.5-34.9-87.3c0,0-8,61.6-18,79.4l-19.6-3
			c0,0,9.3-46.2,10.9-82.8s1.1-45.2,1.1-45.2L260,266.6L260,266.6z"></path><path class="st0" d="M271.4,409.7c-0.1,0-0.2,0-0.3,0c-0.2-0.1-0.3-0.2-0.4-0.4c-0.2-0.6-24.1-60.1-33.9-84.7
			c-1.7,12.5-8.9,61.1-17.7,76.9c-0.2,0.3-0.5,0.4-0.8,0.4l-19.6-3c-0.2,0-0.4-0.1-0.5-0.3c-0.1-0.2-0.2-0.4-0.1-0.6
			c0.1-0.5,9.3-46.5,10.8-82.7s1.1-45,1.1-45.1c0-0.4,0.3-0.8,0.7-0.8l49.1-3.5h0c0.4,0,0.7,0.2,0.8,0.6c0.2,1,23.7,97.5,29.5,134.1
			c0.1,0.3-0.1,0.7-0.4,0.8l-18,8.4C271.6,409.7,271.5,409.7,271.4,409.7z M236.5,320.9c0.3,0,0.6,0.2,0.7,0.5
			c8.4,21.3,31.7,79.4,34.6,86.6l16.8-7.8c-5.7-35.4-27.2-124.4-29.2-132.8l-47.8,3.4c0.1,2.8,0.2,13.9-1.1,44.5
			c-1.5,33.7-9.5,76-10.7,82.2l18.4,2.8c9.7-18.1,17.6-78.1,17.7-78.7C235.8,321.2,236.1,320.9,236.5,320.9L236.5,320.9z"></path><path class="st0" d="M271.4,409.7c-0.1,0-0.2,0-0.3-0.1c-0.2-0.1-0.3-0.2-0.4-0.4c-0.2-0.6-24.1-60.1-33.9-84.7
			c-1.7,12.5-8.9,61.1-17.7,76.9c-0.2,0.3-0.5,0.4-0.8,0.4l-19.6-3c-0.4-0.1-0.7-0.4-0.6-0.8c0,0,0,0,0,0
			c0.1-0.5,9.3-46.5,10.8-82.7s1.1-45.1,1.1-45.1c0-0.4,0.3-0.8,0.7-0.8l49.2-3.5c0.4,0,0.7,0.2,0.8,0.6c0.2,1,23.7,97.5,29.5,134.1
			c0.1,0.3-0.1,0.7-0.4,0.8l-18,8.4C271.6,409.7,271.5,409.7,271.4,409.7L271.4,409.7z"></path><path class="st2" d="M293.8,203.9c0,0,5.5-6.2,6-6.7s1-5,3.6-6.4c1.2-0.7,2.4-1.2,3.8-1.5c0,0,7.3-7,8.3-5.8s-4.1,6.8-4.1,6.8
			s2.6,4.1,1.2,7.7s-3.3,6-5.6,6.5s-8.3,9.4-8.3,9.4L293.8,203.9L293.8,203.9z"></path><path class="st0" d="M298.6,214.6L298.6,214.6c-0.3,0-0.6-0.2-0.7-0.4l-4.9-9.9c-0.2-0.3-0.1-0.7,0.2-0.9c0.9-1,5.5-6.2,6-6.7
			l0.3-1c0.5-1.7,1.3-4.4,3.4-5.6c1.2-0.7,2.5-1.2,3.8-1.6c2-1.9,6.6-6.1,8.4-5.9c0.3,0,0.6,0.2,0.8,0.4c1.1,1.4-1.4,4.7-3.8,7.4
			c0.7,1.3,2.2,4.7,1,7.9c-1.5,4-3.6,6.4-6.1,7c-1.4,0.3-5.4,5.5-7.8,9.1C299.1,214.5,298.9,214.6,298.6,214.6z M294.6,204l4.1,8.3
			c1.8-2.6,5.9-8.2,8-8.6s3.8-2.6,5.1-6c1.2-3.2-1.1-7-1.1-7.1c-0.2-0.3-0.1-0.7,0.1-0.9c2-2.2,3.8-4.6,4-5.6
			c-1.2,0.4-4.5,3.1-7.1,5.6c-0.1,0.1-0.3,0.2-0.5,0.2c-1.2,0.3-2.4,0.8-3.5,1.4c-1.6,0.9-2.3,3.3-2.7,4.7c-0.1,0.6-0.4,1.2-0.7,1.6
			C299.9,198,296.8,201.6,294.6,204L294.6,204z"></path><path class="st0" d="M224.9,181.3c-2.9,1.1-6,1.5-9,0.9c-1.4-0.2-2.7-0.8-3.7-1.7c-1-1-1.3-2.5-0.6-3.8c-1.5,0.1-3-0.6-4-1.8
			c-0.9-1.2-1.5-2.6-1.7-4.1c-0.3-1.9-0.1-4.2,1.4-5.4c-0.8-0.4-4.6-2.8-4.3-6.4c0.6-5.8,4-5.8,4.5-5.8c-1.2-3-0.6-6.5,1.6-8.9
			c1-1.2,2.4-2,4-2.3c1.7,0,3.3,0.1,5,0.3c1.4-1.9,4.6-3.6,7-3.3c2.1,0.3,3.9,1.8,4.6,3.8c1.9-0.3,3.8-0.1,5.6,0.4
			c1.8,0.6,3.3,1.9,4,3.7c0.7,1.8,0,3.8-1.6,4.9c2.2,0.4,3.8,2.3,3.8,4.6c-0.2,2.2-1.7,4.1-3.8,4.8c-0.3,0.1-0.6,0.2-0.8,0.4
			c-0.2,0.3-0.4,0.6-0.4,1c-0.3,1.2-1.4,1.7-1.9,2.7c-0.6,1.5-1.1,3.1-1.5,4.7c-0.5,1.5-1.1,2.9-1.7,4.4c-0.7,1.6-1.1,3.4-2.1,4.8
			s-2,1.2-3.3,1.8C225.5,181.1,225.2,181.2,224.9,181.3L224.9,181.3z"></path><path class="st2" d="M237.4,159.8c0,0,6.2,4.6,5.8,6.1s-3.4,1.7-3.4,1.7"></path><path class="st0" d="M239.8,168.4c-0.4,0-0.8-0.3-0.8-0.8s0.3-0.8,0.8-0.8l0,0c1-0.1,2.6-0.5,2.7-1.1c0-0.7-2.6-3.2-5.5-5.4
			c-0.3-0.2-0.4-0.7-0.1-1c0.2-0.3,0.7-0.4,1-0.2c2.4,1.8,6.5,5.1,6.1,6.9C243.4,168.2,240.2,168.4,239.8,168.4L239.8,168.4z"></path><path class="st2" d="M231.2,149.4c0.5,0.1,0.9,0.3,1.2,0.6c1.1,1.1,2,2.5,2.7,3.9c0.6,1.2,1.2,2.5,1.7,3.8
			c2.2,5.8,4.2,11.6,6,17.6c0.8,2.6-2.1,4.6-7,5.5l4.5,8.9c0,0-2.8,2-9,1.5s-6.7-1.8-6.7-1.8l-3.8-11.7c0,0,4.4-1.6,5-7.7
			c0.1-1-0.2-2.3,0.1-3.2c0.4-1.1,1.4-1.7,1.4-3c0.1-1.2-0.4-2.4-1.4-3.2c-0.2-0.2-0.4-0.4-0.4-0.6c0-0.2,0.1-0.3,0.3-0.4
			c1.2-1.4,1.1-3.5-0.2-4.7c0,0,0,0,0,0c1.7-0.6,2.2-2.7,2.4-4.4c-0.1,0.6,2.6-0.8,2.7-0.8C230.8,149.5,231,149.5,231.2,149.4
			L231.2,149.4z"></path><path class="st0" d="M233.1,192c-0.7,0-1.4,0-2.1-0.1c-5.8-0.5-7.1-1.6-7.3-2.2l-3.8-11.8c-0.1-0.4,0.1-0.8,0.5-0.9
			c0.2-0.1,3.9-1.5,4.6-7c0-0.4,0-0.8,0-1.2c-0.1-0.7,0-1.5,0.1-2.2c0.2-0.5,0.4-1,0.8-1.4c0.4-0.4,0.6-0.9,0.6-1.4
			c0.1-1-0.4-2-1.1-2.6c-0.5-0.3-0.7-0.8-0.7-1.4c0.1-0.3,0.2-0.6,0.5-0.8c0.5-0.5,0.7-1.2,0.6-1.8c0-0.7-0.3-1.3-0.8-1.8
			c-0.3-0.3-0.4-0.8-0.1-1.1c0.1-0.1,0.2-0.2,0.3-0.2c1.3-0.5,1.7-2.3,1.9-3.8l0,0c0.1-0.4,0.4-0.7,0.8-0.6c0,0,0,0,0,0
			c0.1,0,0.2,0,0.2,0.1c0.6-0.2,1.3-0.5,1.9-0.8c0.1-0.1,0.2-0.1,0.3-0.1c0.3-0.1,0.5-0.1,0.8-0.1l0,0c0.6,0.1,1.2,0.4,1.6,0.8
			c1.2,1.2,2.1,2.6,2.8,4.1c0.6,1.3,1.2,2.6,1.7,3.9c2.1,5.6,4.2,11.6,6,17.6c0.3,1,0.2,2-0.4,2.9c-0.9,1.5-3.1,2.7-6.2,3.4l4,8
			c0.2,0.3,0.1,0.7-0.2,0.9C240.4,190.4,238.1,192,233.1,192z M225,189c0.2,0.2,1.4,1,6.1,1.4c2.7,0.4,5.5,0,8-1l-4.1-8.2
			c-0.1-0.2-0.1-0.5,0-0.7c0.1-0.2,0.3-0.4,0.5-0.4c3.2-0.5,5.4-1.6,6.2-2.9c0.3-0.5,0.4-1.1,0.2-1.6c-1.8-6-3.9-11.9-6-17.5
			c-0.5-1.3-1-2.5-1.6-3.7c-0.6-1.4-1.4-2.6-2.5-3.6c-0.4-0.3-0.6-0.4-0.7-0.5c-0.1,0-0.3,0-0.4,0l0,0c-0.7,0.4-1.5,0.7-2.2,0.9
			c-0.1,1.5-0.8,2.8-1.9,3.8c0.4,0.6,0.6,1.3,0.7,2.1c0.1,1.1-0.3,2.1-1,2.9l0,0c1.1,1,1.7,2.4,1.6,3.9c-0.1,0.8-0.4,1.6-1,2.3
			c-0.2,0.3-0.4,0.6-0.6,1c-0.1,0.5-0.1,1.1-0.1,1.7c0,0.5,0,0.9,0,1.4c-0.6,5.1-3.5,7.2-4.9,8L225,189z"></path><path class="st2" d="M241.5,172.4c-2.1,1.3-4.8,0.9-6.4-1"></path><path class="st0" d="M238.9,173.8c-1.7,0-3.3-0.7-4.4-2c-0.2-0.4-0.1-0.8,0.3-1c0.3-0.1,0.6-0.1,0.8,0c1.3,1.6,3.7,2,5.5,0.9
			c0.3-0.2,0.8-0.1,1,0.2s0.1,0.8-0.2,1l0,0C241,173.6,240,173.9,238.9,173.8z"></path><path class="st2" d="M228.4,163c-7.4-4-6.6,8.4-0.6,8.1"></path><path class="st0" d="M227.6,171.8c-2.1-0.1-4-1.4-4.7-3.5c-0.8-2-0.8-4.7,0.7-6.1c0.7-0.6,2.3-1.5,5.1,0.1c0.4,0.2,0.5,0.6,0.3,1
			c-0.2,0.4-0.6,0.5-1,0.3c-1.1-0.6-2.5-1.1-3.4-0.3s-1,2.7-0.3,4.4c0.5,1.5,1.9,2.5,3.5,2.5c0.4,0,0.8,0.3,0.8,0.7
			c0,0.4-0.3,0.8-0.7,0.8L227.6,171.8z"></path><path class="st0" d="M235.4,180c0,0-3.8,0.2-6.2-1.6c0,0,2.4,6,8.3,5.9L235.4,180L235.4,180z"></path><ellipse class="st0" transform="matrix(0.9519 -0.3064 0.3064 0.9519 -37.768 79.1023)" cx="233.1" cy="159.9" rx="0.6" ry="1.5"></ellipse><path class="st3" d="M245.5,185.4c-1.9-1.3-23.2-6.6-29.1,2.8c-1.6,2.5-9.7,44.3-9.8,63.9c-0.1,9.4-0.6,17.7-0.6,21.9l56.9-7.4
			C262.8,266.6,255.8,192.8,245.5,185.4z"></path><path class="st3" d="M242.9,216c0,0,11.4,15.9,25.8,15.3s36.4-22.3,36.4-22.3l-8.5-10c0,0-13.2,11.6-21.3,10.5
			c-7.3-1-16.8-11.5-23.1-18.1c-1.9-2.1-4.1-3.9-6.4-5.5L242.9,216z"></path></g><path class="st0" d="M184,224.9c-0.2,0-0.4-0.1-0.5-0.2c-0.3-0.3-0.3-0.7-0.1-1.1c0,0,0,0,0,0c4.9-5.5,12.2-13.6,21.7-24.1
		c0.3-0.3,0.8-0.3,1.1-0.1c0,0,0,0,0,0c0.3,0.3,0.3,0.7,0.1,1.1c-9.5,10.5-16.8,18.6-21.7,24.1C184.4,224.8,184.2,224.9,184,224.9z"></path><path class="st0" d="M206.6,252.9L206.6,252.9c-0.4,0-0.7-0.4-0.7-0.8c1.3-29.2,4-42.1,4-42.3c0.1-0.4,0.5-0.7,0.9-0.6
		c0.4,0.1,0.7,0.5,0.6,0.9c0,0,0,0,0,0c0,0.1-2.7,13-4,42C207.3,252.6,207,252.9,206.6,252.9z"></path><path class="st0" d="M261.4,231.2c-0.1,0-0.1,0-0.2,0c-4.3-1-13.9-7.7-14.3-8c-0.3-0.2-0.4-0.7-0.2-1c0.2-0.3,0.7-0.4,1-0.2
		c0,0,0,0,0,0c0.1,0.1,9.7,6.8,13.7,7.8c0.4,0.1,0.7,0.5,0.6,0.9C262,231,261.7,231.2,261.4,231.2L261.4,231.2z"></path></g><g id="Monitor"><g id="Screen"><path class="st2" d="M335.3,288.3c0,0-2.2,23.1,2.7,26.2c4.6,2.9,9.8,2.1,12.6,2.1c2.2-0.1,4.2,1.2,4.9,3.3l0.8,2.5h-35.6
			c-2.7-1.8-4.9-4.1-6.6-6.8c-2.4-4.2-0.9-26.1-0.9-26.1L335.3,288.3L335.3,288.3z"></path><path class="st0" d="M356.3,323.1h-35.6c-0.1,0-0.3,0-0.4-0.1c-2.8-1.8-5.1-4.3-6.9-7.1c-2.5-4.4-1.1-25.6-1-26.5
			c0-0.4,0.3-0.7,0.7-0.7l22.1-1.1c0.1,0,0.3,0,0.4,0c0.3,0.1,0.5,0.4,0.5,0.8c-1.8,18.5,1.1,24.7,2.4,25.5c3.6,2.3,7.6,2.1,10.6,2
			c0.6,0,1.1,0,1.6,0c2.5-0.1,4.8,1.4,5.6,3.8l0.8,2.5c0.1,0.2,0,0.5-0.1,0.7C356.8,323,356.5,323.1,356.3,323.1z M320.9,321.6h34.4
			l-0.5-1.5c-0.7-1.7-2.3-2.8-4.2-2.7c-0.5,0-1,0-1.6,0c-2.9,0.1-7.4,0.3-11.4-2.2c-4.8-3-3.6-21.4-3.2-26l-20.6,1
			c-0.4,6.5-1,21.8,0.9,25C316.3,317.7,318.4,319.9,320.9,321.6z"></path><path class="st0" d="M314.9,310.2c0,5.7,1.7,7.4,4,7.4h9c1.3,0,2.4,0.8,2.8,2l1,2.7h-13.9c-3.5,0-6-5.4-6.2-11s0-21.9,0-21.9h3.1
			C314.7,289.4,314.8,304.6,314.9,310.2L314.9,310.2z"></path><path class="st0" d="M363,225.5l5.4,61.7c0.3,2.7-1.5,5.1-4.2,5.5c-0.2,0-0.4,0-0.6,0H290c-3.1-0.1-5.5-2.5-5.8-5.5l-5.4-61.7
			c-0.3-2.7,1.5-5.1,4.2-5.5c0.2,0,0.4,0,0.6,0h73.6C360.3,220,362.8,222.4,363,225.5z"></path><path class="st2" d="M363.2,225.2l5.1,58.9c0.3,2.6-1.5,4.9-4.1,5.2c-0.2,0-0.4,0-0.6,0h-70.2c-2.9-0.1-5.3-2.4-5.5-5.3l-5.1-58.9
			c-0.3-2.6,1.5-4.9,4-5.2c0.2,0,0.4,0,0.6,0h70.2C360.6,220,363,222.3,363.2,225.2z"></path><path class="st0" d="M363.8,290.1h-70.2c-3.3-0.1-6-2.7-6.3-6l-5.1-58.9c-0.2-1.6,0.3-3.2,1.4-4.4c1-1.1,2.4-1.7,3.9-1.7h70.2
			c3.3,0.1,6,2.7,6.3,6l0,0l5.2,58.9c0.2,1.6-0.4,3.2-1.4,4.4C366.7,289.5,365.3,290.2,363.8,290.1z M287.5,220.7
			c-1.1,0-2.1,0.4-2.8,1.2c-0.8,0.9-1.1,2.1-1,3.2l5.2,58.9c0.2,2.5,2.3,4.5,4.8,4.6h70.2c1.1,0,2.1-0.4,2.8-1.2
			c0.8-0.9,1.1-2.1,1-3.2l-5.1-58.9c-0.2-2.5-2.3-4.5-4.8-4.6L287.5,220.7z"></path><path class="st2" d="M367.5,274.2l0.9,9.9c0.3,2.6-1.5,4.9-4.1,5.2c-0.2,0-0.4,0-0.6,0h-70.2c-2.9-0.1-5.3-2.4-5.5-5.3l-0.9-9.9
			H367.5z"></path><path class="st0" d="M363.8,290.1h-70.2c-3.3-0.1-6-2.7-6.3-6l-0.9-9.9c0-0.2,0-0.4,0.2-0.6c0.1-0.2,0.3-0.2,0.5-0.2h80.4
			c0.4,0,0.7,0.3,0.8,0.7l0.9,9.9c0.2,1.6-0.4,3.2-1.4,4.4C366.7,289.5,365.3,290.1,363.8,290.1z M288,275l0.8,9.1
			c0.2,2.5,2.3,4.5,4.8,4.6h70.2c1.1,0,2.1-0.4,2.8-1.2c0.8-0.9,1.1-2.1,1-3.2l-0.8-9.2L288,275z"></path><ellipse class="st1" transform="matrix(0.8307 -0.5567 0.5567 0.8307 -101.3495 230.311)" cx="328" cy="281.8" rx="3.2" ry="3.5"></ellipse></g><g id="data"><polygon class="st1" points="346.9,246.4 355.6,246.4 355,237.7 346.3,237.7 		"></polygon><polygon class="st1" points="332.6,246.4 341.3,246.4 340.2,230.3 331.5,230.3 		"></polygon><polygon class="st1" points="318.3,246.4 327,246.4 325.5,223.9 316.8,223.9 		"></polygon><path class="st1" d="M299.6,231.2h11.9c0.6,0,1-0.4,1-1s-0.4-1-1-1h-11.9c-0.6,0-1,0.4-1,1S299,231.2,299.6,231.2z"></path><path class="st1" d="M299.9,236.1h11.9c0.6,0,1-0.4,1-1s-0.4-1-1-1h-11.9c-0.6,0-1,0.4-1,1S299.4,236.1,299.9,236.1z"></path><path class="st1" d="M303.3,241h8.8c0.6,0,1-0.4,1-1s-0.4-1-1-1h-8.8c-0.6,0-1,0.4-1,1S302.7,241,303.3,241z"></path><path class="st2" d="M356,258h-6.6l-0.3-5.1h6.6L356,258z"></path><path class="st0" d="M356,258.7h-6.6c-0.4,0-0.7-0.3-0.7-0.7l-0.3-5.1c0-0.2,0.1-0.4,0.2-0.6c0.1-0.1,0.3-0.2,0.5-0.2h6.6
			c0.4,0,0.7,0.3,0.8,0.7l0.3,5.1c0,0.2-0.1,0.4-0.2,0.6C356.4,258.6,356.2,258.7,356,258.7z M350.1,257.2h5.1l-0.2-3.6h-5.1
			L350.1,257.2z"></path><path class="st1" d="M318.8,254.4h23c0.6,0,1-0.4,1-1s-0.4-1-1-1h-23c-0.6,0-1,0.4-1,1S318.2,254.4,318.8,254.4z"></path><path class="st1" d="M323.8,257.7H342c0.6,0,1-0.4,1-1s-0.4-1-1-1h-18.2c-0.6,0-1,0.4-1,1S323.2,257.7,323.8,257.7z"></path><path class="st2" d="M349.7,268.7h7.3c0.1,0,0.2,0,0.2-0.1c0.1-0.1,0.1-0.2,0.1-0.2l-0.4-5.8c0-0.2-0.2-0.3-0.3-0.3h-7.3
			c-0.1,0-0.2,0-0.2,0.1c-0.1,0.1-0.1,0.2-0.1,0.2l0.4,5.8C349.4,268.6,349.6,268.7,349.7,268.7
			C349.7,268.7,349.7,268.7,349.7,268.7z"></path><path class="st0" d="M357,269.5h-7.3c-0.6,0-1-0.4-1.1-1l-0.4-5.8c0-0.6,0.4-1.1,1-1.1c0,0,0,0,0.1,0h7.3c0.6,0,1,0.4,1.1,1
			l0.4,5.8c0,0.3-0.1,0.6-0.3,0.8C357.6,269.3,357.3,269.5,357,269.5z M350.1,268.3L350.1,268.3z M350.1,268h6.5l-0.3-4.9h-6.4
			L350.1,268z M356.2,262.6L356.2,262.6z"></path><path class="st1" d="M319.4,264.5h23c0.6,0,1-0.4,1-1s-0.4-1-1-1h-23c-0.6,0-1,0.4-1,1S318.9,264.5,319.4,264.5z"></path><path class="st1" d="M324.5,267.8h18.2c0.6,0,1-0.4,1-1s-0.4-1-1-1h-18.2c-0.6,0-1,0.4-1,1S323.9,267.8,324.5,267.8z"></path><path class="st1" d="M310.4,258.7c-0.6-2.5-2.7-4.5-5.2-4.9l-0.2-3.7c2,0.2,4,1,5.5,2.4l0,0c0.3,0.3,0.7,0.6,1,0.9
			c1.4,1.5,2.4,3.3,2.7,5.4H310.4z"></path><path class="st0" d="M314.2,260.7c-0.1,2-0.8,3.8-2,5.4c-0.3,0.3-0.5,0.6-0.8,0.9c-1.9,1.7-4.3,2.5-6.8,2.4
			c-2.2-0.1-4.2-1-5.9-2.4c-0.3-0.3-0.7-0.6-1-0.9c-1.5-1.6-2.5-3.6-2.8-5.7c0-0.2,0-0.4-0.1-0.6s0-0.4,0-0.6l0,0
			c0-2,0.6-3.9,1.8-5.4l2.8,2.6c-0.5,0.8-0.8,1.8-0.9,2.8c0,0.2,0,0.5,0,0.7c0,0.2,0,0.5,0.1,0.7c0.2,1.1,0.7,2.1,1.5,3
			c0.3,0.4,0.6,0.7,1,1c1.3,1,2.9,1.4,4.5,1.2c1.1-0.1,2.1-0.6,2.9-1.3c0.3-0.3,0.7-0.6,0.9-1c0.6-0.8,0.9-1.7,1-2.7L314.2,260.7
			L314.2,260.7z"></path><path class="st3" d="M297.5,252.2c1.6-1.5,3.6-2.3,5.8-2.5l0.3,4.3c-1,0.1-2,0.5-2.8,1.2L297.5,252.2L297.5,252.2z"></path></g></g><g id="Character_2"><path class="st2" d="M63.6,273.9c0,0,7.6-4.9,24.9-2.5l-11,26.4L63.6,273.9z"></path><path class="st0" d="M77.5,298.5c-0.3,0-0.5-0.1-0.7-0.4l-13.9-24c-0.2-0.3-0.1-0.8,0.2-1c0.3-0.2,8-5,25.4-2.6
		c0.2,0,0.4,0.2,0.6,0.4c0.1,0.2,0.1,0.5,0,0.7l-11,26.4C78.1,298.3,77.9,298.5,77.5,298.5L77.5,298.5z M64.7,274.1l12.8,22l10-24.1
		C74,270.3,66.7,273.1,64.7,274.1z"></path><line class="st4" x1="114.9" y1="349.7" x2="127.7" y2="422.8"></line><path class="st0" d="M127.7,423.6c-0.4,0-0.7-0.3-0.7-0.6l-12.8-73.1c-0.1-0.4,0.1-0.8,0.5-0.9s0.8,0.1,0.9,0.5c0,0,0,0.1,0,0.1
		l12.8,73.1c0.1,0.4-0.2,0.8-0.6,0.9c0,0,0,0,0,0L127.7,423.6z"></path><path class="st0" d="M146.2,409.5c0,0-5.8,9.1-7,17.8h55.2c-1.4-3.2-4-5.7-7.3-6.9c-5.5-2.1-17.5-3.1-19.5-5.3s-1.6-5.5-1.6-5.5
		L146.2,409.5L146.2,409.5z"></path><polygon class="st2" points="147.7,403.6 146.2,409.5 166,409.5 166.6,402.1 	"></polygon><path class="st0" d="M166,410.3h-19.8c-0.2,0-0.4-0.1-0.6-0.3c-0.1-0.2-0.2-0.4-0.1-0.6l1.5-6c0.1-0.3,0.3-0.5,0.7-0.6l19-1.5
		c0.4,0,0.8,0.3,0.8,0.7c0,0,0,0.1,0,0.1l-0.6,7.4C166.7,410,166.4,410.3,166,410.3z M147.1,408.8h18.2l0.5-5.8l-17.6,1.3
		L147.1,408.8z"></path><path class="st0" d="M139.8,323.6c0,0,34.1-1.9,39.6,2.5s-11.3,79.6-11.3,79.6h-22.5c0,0,2.3-46.6,5-55.5s-17.6-21.9-17.6-21.9
		L139.8,323.6z"></path><path class="st2" d="M113.3,402.7c0,0-1.7,3-3.4,6.3h19.9l6.5-7.8C136.3,401.2,114.9,399.3,113.3,402.7z"></path><path class="st0" d="M129.8,409.7h-19.9c-0.4,0-0.7-0.3-0.7-0.8c0-0.1,0-0.2,0.1-0.3c1.6-3.2,3.2-6,3.4-6.3
		c1.8-3.5,18.6-2.3,23.8-1.9c0.3,0,0.5,0.2,0.6,0.5c0.1,0.3,0.1,0.6-0.1,0.8l-6.5,7.8C130.2,409.6,130,409.7,129.8,409.7z
		 M111.1,408.2h18.3l5.4-6.4c-9.7-0.7-20-0.5-20.9,1.2c0,0,0,0,0,0S112.6,405.4,111.1,408.2z M113.3,402.7L113.3,402.7z"></path><path class="st0" d="M93.7,332.7c0,0-0.8,8.4,8,14.3s33.7,3.3,33.7,3.3l-24.7,52.2l25.2,2.1c0,0,35.7-58.8,35.1-68.6
		s-15.2-11.6-15.2-11.6H96.4L93.7,332.7z"></path><path class="st2" d="M149.9,379.5c-0.1,0-0.3,0-0.4-0.1c-0.3-0.2-0.5-0.6-0.3-1c13.1-23.2,20.2-38.3,20-42.4
		c-0.5-9-14.4-10.9-14.6-10.9c-0.4-0.1-0.7-0.4-0.6-0.8s0.4-0.7,0.8-0.6c0.6,0.1,15.3,2,15.9,12.3c0.2,4.5-6.6,19.1-20.2,43.2
		C150.4,379.4,150.2,379.5,149.9,379.5z"></path><path class="st2" d="M196.6,320.6c1.2,0,2.4,0,3.6,0.1l1.6,0.2c1.4,0.2,2.7,0.3,4.1,0.2c0.4,0,0.9-0.2,1-0.5s-0.1-0.5-0.3-0.7
		c-1.8-2.4-4.5-4.1-7.4-4.8l0,0c-4-1.1-7.1-1.3-8.9-0.5c-1.2,0.5-3.6,3.6-3.4,5c0,0.2,0.1,0.6,0.9,0.7c2.1,0.2,4.3,0.3,6.5,0.2
		C195.2,320.6,195.9,320.6,196.6,320.6L196.6,320.6z"></path><path class="st0" d="M204.9,321.9c-1.1,0-2.1-0.1-3.2-0.3l-1.5-0.2c-1.1-0.1-2.3-0.2-3.4-0.1h-0.1c-0.7,0-1.5,0-2.2,0
		c-2.2,0.1-4.4,0-6.6-0.2c-0.8,0-1.5-0.6-1.6-1.3c-0.3-1.8,2.3-5.1,3.8-5.8c1.9-0.8,5.1-0.7,9.4,0.5c3.1,0.7,5.9,2.5,7.8,5.1
		c0.3,0.3,0.4,0.8,0.4,1.3c-0.1,0.6-0.7,1-1.6,1C205.6,321.9,205.2,321.9,204.9,321.9z M196.6,319.8c1.5,0,2.6,0,3.7,0.1l1.6,0.2
		c1.3,0.2,2.7,0.3,4,0.2h0.1c-1.7-2.2-4.2-3.8-6.9-4.4c-3.8-1-6.8-1.2-8.4-0.5c-1,0.4-3.1,3.2-2.9,4.2c0.1,0,0.2,0.1,0.3,0.1
		c2.1,0.2,4.2,0.3,6.4,0.2C195.1,319.9,195.8,319.9,196.6,319.8L196.6,319.8z"></path><path class="st3" d="M96.4,326.7c0,0-15-35.4-13.2-55.4c1.3-14.9,14.4-21.2,19.4-21.6c4.6-0.3,28.7-3.5,37.5,7.3
		c8.8,10.8,8.1,68,8.1,68L96.4,326.7z"></path><polygon class="st2" points="126.4,259 126.1,299.8 108.9,256.3 	"></polygon><path class="st0" d="M126.1,300.5c-0.3,0-0.6-0.2-0.7-0.5l-17.3-43.5c-0.1-0.4,0.1-0.8,0.4-1c0.1,0,0.2-0.1,0.4,0l17.6,2.7
		c0.4,0.1,0.6,0.4,0.6,0.8l-0.3,40.7c0,0.4-0.3,0.7-0.6,0.7H126.1z M110,257.2l15.4,38.7l0.3-36.2L110,257.2z"></path><path class="st3" d="M140,257.1c0,0,6.5,12.5,10.4,19s12.2,15.7,12.2,15.7s29.5,10.5,29.7,11.1s-2.8,10.5-2.8,10.5
		s-31-2.2-36.1-4.6s-15.5-14.3-15.5-14.3L140,257.1L140,257.1z"></path><polygon class="st0" points="119.8,263.5 117.6,267 119.9,268.4 120.2,284.8 126.1,299.8 126.4,285.9 121.5,267.9 123,266.2 	"></polygon><path class="st2" d="M107.1,214.1c0.6-0.2,1.3-0.4,2-0.5c2.7-0.3,2.7,0.3,4.8-1.5c3.2-2.5,7-3.9,11-4.2c7.7-0.5,13.3,3.4,11.5,11.8
		c-0.8,3.4-2.4,6.5-4.5,9.2c-4.3,6-10.5,11.5-17.9,12.1c-2.2,0.2-6.3,0-7.9-1.8c-4.6-5.2-6.1-12.4-4.1-19.1c0.4-1.4,1.1-2.7,2-3.9
		C104.8,215.3,105.9,214.5,107.1,214.1L107.1,214.1z"></path><path class="st0" d="M112.7,241.8c-2,0-5.5-0.3-7.2-2.1c-4.8-5.4-6.4-12.9-4.2-19.8c0.4-1.5,1.2-2.9,2.1-4.1
		c0.9-1.1,2.1-1.9,3.4-2.4h0.1c0.7-0.3,1.4-0.4,2.1-0.5c0.7-0.1,1.2-0.1,1.7-0.1c1.1,0,1.4-0.1,2.7-1.2c3.3-2.6,7.2-4.1,11.4-4.4
		c4.6-0.3,8.4,0.9,10.5,3.4c2,2.2,2.6,5.5,1.8,9.3c-0.8,3.5-2.4,6.7-4.6,9.5c-3.8,5.3-10.1,11.7-18.5,12.4
		C113.8,241.7,113.3,241.8,112.7,241.8z M107.3,214.8c-1.1,0.4-2,1.1-2.8,1.9c-0.8,1.1-1.5,2.3-1.9,3.6c-2,6.4-0.5,13.3,3.9,18.4
		c1.2,1.4,4.6,1.8,7.3,1.6c7.8-0.6,13.7-6.7,17.4-11.8c2.1-2.6,3.6-5.7,4.4-8.9c0.7-3.4,0.2-6.1-1.4-8c-1.9-2.1-5.2-3.2-9.3-2.9
		c-3.8,0.2-7.5,1.6-10.5,4c-1.7,1.4-2.2,1.5-3.6,1.5c-0.4,0-0.9,0-1.6,0.1C108.5,214.4,107.9,214.5,107.3,214.8L107.3,214.8z
		 M107.1,214.1L107.1,214.1z"></path><path class="st0" d="M112.7,241.6c-2,0-5.4-0.3-7-2c-4.7-5.4-6.3-12.8-4.2-19.6c0.4-1.5,1.1-2.8,2.1-4c0.9-1,2-1.9,3.3-2.4l0,0
		c0.7-0.3,1.4-0.5,2.1-0.6c0.6-0.1,1.1-0.1,1.7-0.1c1.1-0.1,1.4-0.1,2.8-1.2c3.2-2.6,7.2-4.1,11.3-4.3c4.5-0.3,8.2,0.9,10.4,3.3
		c1.9,2.2,2.5,5.4,1.7,9.1c-0.6,2.9-2,5.9-4.6,9.4c-3.8,5.2-10,11.6-18.3,12.3C113.8,241.5,113.3,241.5,112.7,241.6L112.7,241.6z"></path><path class="st2" d="M127.1,247.5v11.6c0,0-2.7,6.4-10.3,4.5s-8.5-7.4-8.5-7.4l0.3-21.5c0,0,5.7-2.9,4.2-15.2
		c6.2,2.8,13,3.8,19.8,3c0,0,2.3,13.4,1.5,19.4C133.3,247.5,127.2,247.4,127.1,247.5L127.1,247.5z"></path><path class="st0" d="M119.5,264.7c-1,0-2-0.1-2.9-0.4c-8-2-9-7.8-9.1-8c0,0,0-0.1,0-0.1l0.3-21.5c0-0.3,0.2-0.5,0.4-0.6
		c0.1,0,5.2-3,3.8-14.5c0-0.3,0.1-0.5,0.3-0.7c0.2-0.2,0.5-0.2,0.8-0.1c6.1,2.7,12.8,3.7,19.4,2.9c0.4,0,0.8,0.2,0.8,0.6
		c0.1,0.6,2.3,13.6,1.5,19.6c-0.5,3.6-3,5.8-6.9,6.3v11c0,0.1,0,0.2-0.1,0.3C126.3,262.7,123.1,264.7,119.5,264.7z M109,256.1
		c0.1,0.6,1.3,5,8,6.7c6.4,1.6,9-3,9.4-3.9v-11.5c0-0.2,0.1-0.4,0.3-0.6c0.2-0.1,0.4-0.2,0.6-0.2c2.5-0.2,5.5-1.3,6.1-5.1
		c0.7-5-0.9-15.6-1.4-18.4c-6.2,0.6-12.5-0.3-18.3-2.6c0.9,9.9-3,13.5-4.3,14.4L109,256.1z M127.1,259.1L127.1,259.1z"></path><path class="st2" d="M113.1,234.4c-0.3-1-0.8-2-1.7-2.7c-0.8-0.6-1.7-1.1-2.7-1.4c-0.5-0.2-1-0.3-1.6-0.3c-0.4,0.1-0.8,0.2-1.1,0.4
		c-0.8,0.4-1.5,1.1-1.9,1.9c-0.2,0.7-0.3,1.5-0.1,2.2c0.1,0.8,0.3,1.6,0.6,2.3c1.2,3.1,4.7,4.6,7.8,3.3c0.1,0,0.1-0.1,0.2-0.1"></path><path class="st0" d="M110.2,241.3c-0.9,0-1.7-0.2-2.6-0.5c-1.7-0.7-3-2-3.7-3.7c-0.3-0.8-0.5-1.7-0.6-2.5c-0.2-0.8-0.1-1.7,0.2-2.5
		c0.4-1,1.2-1.8,2.2-2.3c0.4-0.2,0.9-0.4,1.4-0.5c0.7,0,1.3,0.1,1.9,0.4c1,0.3,2,0.8,2.9,1.5c1,0.8,1.6,1.9,1.9,3.1
		c0.1,0.4-0.2,0.8-0.6,0.9c-0.4,0.1-0.8-0.1-0.9-0.5c0,0,0,0,0,0c-0.2-0.9-0.7-1.7-1.4-2.3c-0.7-0.5-1.6-1-2.4-1.2
		c-0.4-0.2-0.8-0.3-1.3-0.3c-0.3,0.1-0.6,0.2-0.8,0.3c-0.7,0.3-1.2,0.8-1.5,1.5c-0.2,0.6-0.2,1.2-0.1,1.8c0.1,0.7,0.2,1.5,0.5,2.1
		c1.1,2.7,4.2,4,6.9,2.9c0,0,0.1,0,0.1,0c0.4-0.2,0.8-0.1,1,0.3c0.2,0.4,0.1,0.8-0.3,1c0,0-0.1,0-0.1,0
		C112.1,241.1,111.1,241.3,110.2,241.3z"></path><path class="st2" d="M126.7,230.2c0,0,4.1,5.9,3.2,6.9s-3.6,0.4-3.6,0.4"></path><path class="st0" d="M127.9,238.5c-0.6,0-1.2-0.1-1.8-0.2c-0.4-0.1-0.7-0.5-0.6-0.9c0,0,0,0,0,0c0.1-0.4,0.5-0.7,0.9-0.6
		c0.9,0.2,2.3,0.3,2.8-0.1c0.1-0.7-1.4-3.5-3.2-6c-0.2-0.3-0.1-0.8,0.2-1c0.3-0.2,0.8-0.1,1,0.2c3,4.2,4,6.9,3.2,7.9
		C129.7,238.3,128.8,238.6,127.9,238.5z"></path><ellipse class="st2" transform="matrix(6.157113e-02 -0.9981 0.9981 6.157113e-02 -112.6873 337.9425)" cx="123.4" cy="228.9" rx="1.4" ry="1"></ellipse><path class="st0" d="M123.3,231L123.3,231c-0.6,0-1.1-0.3-1.4-0.8c-0.3-0.4-0.4-0.9-0.3-1.4l0,0c-0.1-1,0.5-1.9,1.5-2
		s1.9,0.5,2,1.5c0,0.3,0,0.5,0,0.8C125.1,230,124.4,230.9,123.3,231z M123.4,228.2c-0.2,0.2-0.3,0.4-0.3,0.6l0,0
		c0,0.2,0,0.5,0.2,0.6c0.2-0.2,0.3-0.4,0.3-0.6C123.6,228.7,123.6,228.4,123.4,228.2L123.4,228.2z M122.4,228.8L122.4,228.8z"></path><ellipse class="st2" transform="matrix(0.9975 -7.010469e-02 7.010469e-02 0.9975 -15.7248 9.8076)" cx="131.9" cy="228.9" rx="1" ry="1.4"></ellipse><path class="st0" d="M131.9,231.1c-1.2-0.2-2-1.4-1.7-2.6c0.2-0.8,0.8-1.5,1.5-1.7c0.5,0,1,0.2,1.4,0.6c0.3,0.4,0.5,0.9,0.5,1.4
		c0.2,1.1-0.5,2-1.6,2.3H131.9z M131.8,228.3c-0.2,0.2-0.2,0.4-0.2,0.6c0,0.2,0.1,0.5,0.3,0.6c0.1-0.2,0.2-0.4,0.2-0.6
		C132.1,228.7,132,228.4,131.8,228.3z"></path><path class="st0" d="M134.3,236c-0.4,0-0.8,0-1.2-0.1c-3.8-0.8-6.3-4.5-5.5-8.3c0.6-3.2,3.5-5.6,6.8-5.7l0,0c3.9,0,7.1,3.2,7.1,7.1
		C141.4,232.9,138.2,236,134.3,236L134.3,236z M134.3,223.4c-3.1,0-5.5,2.5-5.5,5.6c0,3.1,2.5,5.5,5.6,5.5c3.1,0,5.5-2.5,5.5-5.6
		c0-2.7-2-4.9-4.6-5.4C135,223.4,134.6,223.4,134.3,223.4z"></path><path class="st0" d="M119.9,235.4c-2.3,0-4.5-1.1-5.8-3c-2.2-3.2-1.5-7.6,1.7-9.9c1.2-0.8,2.6-1.3,4-1.3c0.4,0,0.8,0,1.2,0.1
		c3.8,0.8,6.3,4.5,5.5,8.3C126,232.9,123.2,235.3,119.9,235.4L119.9,235.4z M119.9,222.8c-3.1,0-5.6,2.4-5.6,5.5
		c0,2.7,1.9,5.1,4.6,5.6c3,0.5,5.9-1.5,6.5-4.5c0.5-3-1.5-5.9-4.5-6.5C120.5,222.8,120.2,222.7,119.9,222.8L119.9,222.8z"></path><path class="st0" d="M127.1,247.5c0,0-7.2,1.7-11.5-0.8c0,0,4.7,9.7,11.5,8.7V247.5z"></path><path class="st3" d="M90.6,255.9c-8.9,5.7-20.7,60.2-13.1,66.1c11.9,9.2,45.5-9,45.5-9l-3.4-16c0,0-21.2,0.8-21.5-4.6
		s8.6-19.3,4.7-31.3C96.8,252.3,90.6,255.9,90.6,255.9L90.6,255.9z"></path><path class="st2" d="M159.6,315c-0.2,0.5-1,0.4-1.6,0.1c-2.5-1.2-5.1-2.3-7.6-3.5c1.8,0.9,3.4,2,4.9,3.3c0.3,0.2,0.6,0.6,0.5,1
		c-0.1,0.6-1.1,0.5-1.7,0.2c-2.9-1.4-5.7-3.1-8.3-5.1l5.9,4.5c0.1,0.5-0.4,0.9-0.9,0.9c-0.5,0-1-0.2-1.4-0.5
		c-2.2-1.3-4.4-2.5-6.6-3.8l4.1,2.9c0.6,0.5,1.4,1.2,1.1,1.9s-1.6,0.6-2.5,0.2c-3.4-1.5-6.9-2.6-10.6-3.2c-1.3-0.4-2.6-0.7-3.9-0.8
		c-1.9,0.1-4.1,0.9-6,1.3l-7.5,1.7v-10.5c4.3,0.2,8.6,0,12.8-0.7c3.2-0.8,6.6-1.2,9.9-1.1c4.4,0.2,8.7,1.2,12.8,2.9
		c0.2,0.1,0.3,0.2,0.4,0.3c0.4,0.5-0.5,1.1-1.2,1.1c-1.8,0-3.5-0.2-5.2-0.7c4.2,1.6,8.2,3.7,11.8,6.3
		C159.3,314.1,159.8,314.6,159.6,315L159.6,315z"></path><path class="st0" d="M146.9,318.3c-0.6,0-1.2-0.2-1.8-0.4c-3.3-1.5-6.8-2.5-10.4-3.2c-0.4-0.1-0.9-0.2-1.3-0.4
		c-0.8-0.3-1.6-0.4-2.4-0.4c-1.4,0.1-2.7,0.4-4,0.8c-0.6,0.2-1.3,0.4-1.9,0.5l-4.9,1.1l-2.5,0.6c-0.2,0.1-0.5,0-0.6-0.1
		c-0.2-0.1-0.3-0.4-0.3-0.6v-10.5c0-0.2,0.1-0.4,0.2-0.5c0.1-0.1,0.3-0.2,0.6-0.2c4.2,0.2,8.5,0,12.6-0.6l1.1-0.2
		c2.9-0.7,5.9-1,8.9-0.9c4.5,0.2,8.9,1.2,13,3c0.3,0.1,0.6,0.3,0.8,0.5c0.3,0.4,0.3,0.9,0.1,1.2c-0.4,0.6-1.1,1-1.9,1h-0.1
		c2.5,1.2,4.8,2.6,7.1,4.3c0.9,0.6,1.2,1.4,0.9,2.1c0,0.1-0.1,0.1-0.1,0.2c-0.3,0.4-0.7,0.6-1.2,0.6l0,0c-0.4,0-0.8-0.1-1.2-0.3
		l-1.3-0.6c0.3,0.6,0,1.4-0.6,1.7c-0.7,0.2-1.4,0.2-2-0.1l-1.4-0.7c-0.1,0.2-0.2,0.4-0.3,0.5c-0.3,0.4-0.8,0.6-1.3,0.6
		c-0.6,0-1.2-0.2-1.7-0.6l-0.2-0.1c0,0.3,0,0.5-0.1,0.7c-0.2,0.4-0.5,0.7-0.9,0.9C147.5,318.2,147.2,318.3,146.9,318.3z
		 M131.2,312.4c0.9,0,1.8,0.2,2.7,0.5c0.4,0.1,0.8,0.2,1.2,0.3c3.7,0.7,7.3,1.8,10.7,3.3c0.4,0.2,0.9,0.3,1.4,0.3c0,0,0.1,0,0.1-0.1
		c0.1-0.2-0.2-0.6-0.8-1l-1.4-1l-2.8-1.9c-0.4-0.2-0.5-0.7-0.2-1c0.2-0.4,0.7-0.5,1-0.2l5.1,3l1.5,0.8c0.3,0.2,0.6,0.3,0.9,0.4
		l-3.2-2.4l-2.2-1.6c-0.3-0.3-0.4-0.7-0.1-1.1c0.3-0.3,0.7-0.4,1.1-0.1c2.6,1.9,5.3,3.6,8.2,5c0.1,0.1,0.3,0.1,0.4,0.1l-0.1-0.1
		c-1.4-1.2-3-2.3-4.7-3.2c-0.4-0.2-0.5-0.6-0.3-1c0,0,0,0,0,0c0.2-0.4,0.6-0.5,1-0.4c0,0,0,0,0,0l3.6,1.7l4,1.8
		c0.1,0.1,0.3,0.1,0.4,0.1c-0.1-0.1-0.2-0.1-0.2-0.2c-3.6-2.6-7.5-4.7-11.6-6.2c-0.4-0.2-0.6-0.6-0.4-1c0.1-0.3,0.5-0.5,0.8-0.4
		c1.6,0.5,3.3,0.7,5,0.6c0.1,0,0.2,0,0.3,0c-3.9-1.6-8.1-2.6-12.3-2.8c-2.9,0-5.8,0.3-8.6,0.9l-1.1,0.2c-4,0.7-8.1,0.9-12.2,0.7v8.8
		l1.6-0.4l4.9-1.1c0.6-0.1,1.2-0.3,1.8-0.5c1.4-0.4,2.9-0.7,4.3-0.9L131.2,312.4z"></path><path class="st0" d="M109.9,409c0,0-7.1,13.6-7.1,18.3h52.7c0,0,1.8-4.7-5.4-6.2s-20.3-4.6-21.6-7s1.2-5.1,1.2-5.1L109.9,409z"></path><line class="st4" x1="92.5" y1="349.7" x2="79.5" y2="422.8"></line><path class="st0" d="M79.5,423.6h-0.1c-0.4-0.1-0.7-0.5-0.6-0.9c0,0,0,0,0,0l13-73.1c0.1-0.4,0.5-0.7,0.9-0.6
		c0.4,0.1,0.7,0.5,0.6,0.9l-13,73.1C80.1,423.3,79.8,423.6,79.5,423.6z"></path><path class="st2" d="M81.3,297.7c0.2,1.6,0.4,3.3,0.5,4.9c0.6,9.2-0.4,18.5,1.4,27.5c0.2,1.6,0.9,3.2,1.9,4.4
		c1,0.8,2.1,1.4,3.3,1.7c7.3,2.3,15.2,1.9,22.7,3.3s15.5,5.1,18.3,12.2c0.7,1,0.5,2.4-0.5,3.2c-0.3,0.2-0.6,0.3-0.9,0.4
		c-5.7,2.2-12.9,0.8-18.9,0.7c-8.4,0-16.8-0.4-25.3-0.9c-2.9-0.2-5.8-0.4-8.4-1.7c-9.7-4.5-12.2-19.4-13.3-28.7
		c-1.7-13.7-2.4-27.6-2.3-41.4c0.1-4.2,1.5-9.8,5.7-9.8s9.8,7.5,11.7,10.9C79.3,288.5,80.7,293,81.3,297.7L81.3,297.7z"></path><path class="st0" d="M120.1,357.2c-1.9,0-3.9-0.1-5.8-0.2s-3.5-0.2-5.1-0.2c-8.4,0-16.9-0.4-25.3-0.9c-2.6-0.2-5.9-0.4-8.7-1.7
		c-9.7-4.5-12.5-18.9-13.8-29.3c-1.7-13.8-2.4-27.6-2.3-41.5c0.1-4.8,1.8-10.5,6.4-10.5l0,0c5,0,10.7,8.4,12.3,11.3
		c2.2,4.2,3.6,8.8,4.2,13.5c0,0,0,0.1,0,0.1c0.2,1.5,0.4,3.2,0.5,4.9c0.2,3.3,0.2,6.6,0.2,9.8c0,5.8,0,11.8,1.2,17.5
		c0.2,1.5,0.8,2.9,1.7,4c0.9,0.8,1.9,1.3,3,1.6c4.4,1.2,9,1.9,13.6,2.2c3,0.3,6,0.5,9,1.1c4.5,0.8,15.3,3.6,18.9,12.6
		c0.5,1,0.5,2.2,0,3.2c-0.4,0.6-1,1.1-1.7,1.4C125.7,356.9,122.9,357.3,120.1,357.2z M65.5,274.2L65.5,274.2c-3.8,0-4.9,5.7-4.9,9
		c-0.2,13.8,0.6,27.6,2.3,41.3c1.2,10,3.9,23.9,12.9,28.1c2.6,1.2,5.7,1.4,8.2,1.6c8.3,0.6,16.8,0.9,25.2,0.9c1.7,0,3.4,0.1,5.2,0.2
		c4.6,0.3,9.4,0.6,13.4-0.9c0.4-0.1,0.8-0.4,1.1-0.7c0.2-0.4,0.2-1-0.2-1.9c-3.3-8.3-13.5-11-17.7-11.7c-2.9-0.5-5.9-0.8-8.9-1.1
		c-4.7-0.3-9.4-1-13.9-2.3c-1.4-0.3-2.6-1-3.7-1.9c-1.2-1.4-1.9-3-2.1-4.8c-1.2-5.9-1.2-12-1.2-17.8c0-3.2,0-6.5-0.2-9.7
		c-0.1-1.7-0.3-3.3-0.5-4.9c0,0,0-0.1,0-0.1c-0.5-4.5-1.9-8.9-4-12.9C74.7,281.5,69.4,274.3,65.5,274.2L65.5,274.2z"></path><path class="st2" d="M119.2,240.5c0,0,4.1,4.7,9.5,2.4"></path><path class="st0" d="M125.7,244.3c-2.7-0.1-5.2-1.3-7.1-3.3c-0.3-0.3-0.2-0.8,0.1-1.1c0.3-0.3,0.8-0.2,1.1,0.1
		c0.2,0.2,3.8,4.3,8.6,2.2c0.4-0.2,0.8,0,1,0.4c0,0,0,0,0,0c0.2,0.4,0,0.8-0.4,1c0,0,0,0,0,0C128,244,126.9,244.3,125.7,244.3z"></path><path class="st0" d="M117.6,306.5c-0.4,0-0.7-0.3-0.7-0.7l-0.2-1.3c-3.8,0.3-18.2,1-21.2-2.3c-0.5-0.5-0.8-1.3-0.6-2.1
		c0.4-2.3,1.4-6,2.5-10.2c2.5-9.4,6.3-23.6,4.2-26.6c-0.2-0.3-0.1-0.8,0.2-1c0.3-0.2,0.8-0.1,1,0.2l0,0c2.3,3.3-0.3,14.1-4,27.8
		c-1.1,4.2-2.1,7.9-2.5,10.1c-0.1,0.3,0,0.6,0.3,0.8c2.4,2.6,15.7,2.2,20.7,1.8c0.4,0,0.8,0.3,0.8,0.7l0.2,2
		C118.4,306,118.1,306.4,117.6,306.5C117.7,306.4,117.7,306.4,117.6,306.5L117.6,306.5z"></path><path class="st0" d="M140.3,304.6c-0.4,0-0.7-0.3-0.7-0.6l-3.4-23c0-0.4,0.3-0.8,0.7-0.8c0.4,0,0.7,0.2,0.8,0.6l3.4,23
		c0.1,0.4-0.2,0.8-0.6,0.9L140.3,304.6z"></path><path class="st0" d="M88.5,322.9c-0.4,0-0.8-0.3-0.8-0.8s0.3-0.8,0.8-0.8c10.6,0,25.2-2.5,28.4-3l-0.1-2.1c0-0.4,0.3-0.8,0.7-0.8
		c0,0,0,0,0,0c0.4,0,0.7,0.3,0.8,0.6c0,0,0,0.1,0,0.1l0.1,2.7c0,0.4-0.2,0.7-0.6,0.8C117.6,319.7,100.6,322.9,88.5,322.9z"></path><path class="st2" d="M155.7,427.3L155.7,427.3c-0.5-0.1-0.8-0.4-0.8-0.8c0.2-1.3-0.3-3.6-5-4.6c-2.9-0.6-7.1-1.5-11-2.6
		c-0.4-0.1-0.6-0.5-0.5-0.9c0.1-0.4,0.5-0.6,0.9-0.5c0,0,0,0,0,0c3.9,1,8,2,10.9,2.6c6.1,1.3,6.4,4.8,6.2,6.3
		C156.4,427,156.1,427.3,155.7,427.3z"></path></g><g id="Desk"><rect class="st2" x="37.9" y="322.2" width="427.1" height="18.9"></rect><path class="st0" d="M465,341.8H37.9c-0.4,0-0.7-0.3-0.8-0.8v-18.9c0-0.4,0.3-0.7,0.8-0.8H465c0.4,0,0.7,0.3,0.8,0.8v18.9
		C465.7,341.5,465.4,341.8,465,341.8z M38.7,340.3h425.6V323H38.7L38.7,340.3z"></path></g><g id="Character_1"><g id="Character_Male_2"><path class="st2" d="M386.2,215.8c0,0-8.5,5.3-7.9,6.9s4.7,1.5,4.7,1.5"></path><path class="st0" d="M382.8,224.9c-1.2,0-4.4-0.2-5.1-2c-0.5-1.4,2.2-4.1,8.2-7.8c0.3-0.2,0.8-0.1,1,0.2c0.2,0.3,0.1,0.8-0.2,1
			c-3.9,2.4-7.3,5.2-7.6,6.1c0.4,0.7,2.5,1,3.9,0.9c0.4,0,0.8,0.3,0.8,0.7c0,0,0,0,0,0c0,0.4-0.3,0.8-0.7,0.8L382.8,224.9z"></path><path class="st2" d="M390.1,205.1c0,0-9.8,16.3-9,25.6s12.3,8.6,12.3,8.6l-1.6,11.6c0,0,15.3,0.6,15.3,0s5.7-29.3,5.3-37.2
			S394.6,202.9,390.1,205.1L390.1,205.1z"></path><path class="st0" d="M402.6,252c-2.3,0-5.7-0.1-10.8-0.3c-0.2,0-0.4-0.1-0.5-0.3c-0.1-0.2-0.2-0.4-0.2-0.6l1.5-10.7
			c-2.9-0.1-11.5-0.9-12.2-9.3c-0.7-9.3,8.3-24.7,9.1-26c0.1-0.2,0.2-0.3,0.4-0.4c3.3-1.6,12.7-0.7,18.6,2.7c3,1.8,4.7,4.1,4.8,6.6
			c0.3,6.4-3.2,25.8-4.7,34.1c-0.3,1.7-0.5,3-0.6,3.2c0,0.2-0.1,0.4-0.2,0.5C407.5,251.7,407.2,252,402.6,252z M406.4,250.9
			L406.4,250.9z M392.7,250.3c5.2,0.2,12,0.4,13.8,0.1c0.1-0.4,0.2-1.3,0.5-2.9c1.4-7.5,5-27.5,4.7-33.7c-0.1-2.5-2.3-4.3-4.1-5.3
			c-5.5-3.2-14.1-3.9-16.9-2.7c-1.1,1.8-9.5,16.5-8.8,25s11.1,8,11.5,7.9c0.2,0,0.5,0.1,0.6,0.2c0.2,0.2,0.2,0.4,0.2,0.6
			L392.7,250.3z M390.1,205.1L390.1,205.1z"></path><path class="st0" d="M422,214.6c-0.5-6.4-7.8-10.4-12.9-12.9c-2.3-1.1-4.9-1.8-7.1-3c-0.6-0.3-1.4-0.2-1.8-0.9
			c-0.8-1.4,1.4-3.5-1.8-3.3c-4.1,0.3-10.5,1.9-10.8,7c-0.3,4.1,4.3,5.6,7.4,7.1c3.4,1.7,2.6,6.9,0.9,16.8s2.7,13.4,2.7,13.4
			l10.7,2.2C409.4,241.1,422.8,224.6,422,214.6L422,214.6z"></path><path class="st2" d="M393.3,220.5c1.5-1.4,8.2-3.9,9.6,2.2c0,0.6-0.2,1.2-0.5,1.8c-1.7,3.9-4.7,5.1-8.5,5.2"></path><path class="st0" d="M393.9,230.4c-0.4,0-0.8-0.3-0.8-0.8s0.3-0.8,0.8-0.8c4.1-0.1,6.5-1.6,7.9-4.8c0.2-0.4,0.3-0.9,0.4-1.4
			c-0.2-1.4-1.2-2.6-2.5-3c-2-0.4-4.1,0.1-5.8,1.3c-0.3,0.3-0.7,0.4-1.1,0.1c-0.3-0.3-0.4-0.7-0.1-1.1c0.1-0.1,0.1-0.1,0.2-0.2
			c2-1.6,4.7-2.2,7.2-1.7c1.9,0.6,3.3,2.3,3.6,4.2c0,0.1,0,0.1,0,0.2c0,0.7-0.2,1.4-0.5,2.1C401.5,228.5,398.6,230.3,393.9,230.4
			L393.9,230.4z"></path><path class="st2" d="M387.3,419.8c0.3,2.2-0.2,4.4-1.3,6.2c-1.8,2.7-1.4,10.7-1.4,10.7h16.8c0,0,0.5-9.7-0.6-11.1
			s-1.5-0.2-1.8-1.9s0.9-5.8,0.9-5.8L387.3,419.8L387.3,419.8z"></path><path class="st0" d="M401.4,437.4h-16.8c-0.4,0-0.7-0.3-0.8-0.7c0-0.3-0.4-8.3,1.5-11.2c1-1.7,1.4-3.6,1.2-5.6c0-0.1,0-0.3,0-0.4
			c0.1-0.3,0.3-0.5,0.6-0.5l12.5-1.9c0.4-0.1,0.8,0.2,0.9,0.6c0,0.1,0,0.2,0,0.3c-0.3,1.1-1.1,4.3-0.9,5.5c0,0.2,0.1,0.4,0.1,0.5
			c0,0,0,0,0,0c0.6,0.2,1.1,0.6,1.5,1.1c1.1,1.5,0.9,9.2,0.8,11.6C402.1,437.1,401.8,437.4,401.4,437.4z M385.3,435.9h15.4
			c0.2-4.3,0-9.2-0.5-9.9c-0.2-0.3-0.4-0.5-0.7-0.6c-0.7-0.2-1-0.6-1.2-1.7c-0.1-1.7,0.1-3.4,0.6-5.1l-10.7,1.6
			c0.1,2.1-0.4,4.2-1.5,6C385.3,428.3,385.2,433.4,385.3,435.9z"></path><path class="st2" d="M338,418.5c0,0-0.8,5.3-2.5,6.4s-10.2,1.9-10.9,3.8s0,6.4,0,6.4h25.9v-18.2L338,418.5L338,418.5z"></path><path class="st0" d="M350.5,435.8h-25.9c-0.4,0-0.7-0.3-0.7-0.6c-0.1-0.5-0.6-4.7,0-6.7c0.5-1.5,3.2-2.2,7.3-3.1
			c1.3-0.2,2.6-0.6,3.9-1.1c1-0.6,1.8-3.6,2.2-5.7c0-0.1,0-0.2,0-0.3c0.1-0.3,0.3-0.5,0.6-0.5l12.5-1.6c0.2,0,0.4,0,0.6,0.2
			c0.2,0.1,0.3,0.4,0.3,0.6v18.2C351.2,435.5,350.9,435.8,350.5,435.8z M325.2,434.3h24.5v-16.6l-11.1,1.5c-0.3,1.6-1.1,5.3-2.8,6.3
			c-1.4,0.6-2.8,1-4.3,1.3c-1.9,0.4-6,1.4-6.2,2.1C325,430.7,325,432.5,325.2,434.3z"></path><path class="st2" d="M350.5,435.7h-25.9c-0.3,0-0.6-0.2-0.6-0.6c0-0.2-0.6-4.6,0-6.7c0.5-1.4,3.2-2.1,7.2-3.1
			c1.3-0.2,2.6-0.6,3.9-1.1c1.1-0.7,1.9-4,2.2-5.9c0-0.3,0.3-0.5,0.6-0.5l12.5-1.6c0.2,0,0.4,0,0.5,0.2c0.1,0.1,0.2,0.3,0.2,0.5
			v18.2C351.1,435.4,350.8,435.7,350.5,435.7L350.5,435.7z"></path><path class="st0" d="M350.5,436.5h-25.9c-0.7,0-1.3-0.5-1.4-1.2c0,0-0.7-4.7,0.1-7c0.6-1.8,3.3-2.5,7.8-3.6c1.3-0.2,2.5-0.6,3.7-1
			c0.6-0.4,1.5-3,1.9-5.4c0.1-0.6,0.6-1.1,1.2-1.2l12.5-1.6c0.4,0,0.8,0.1,1.1,0.3c0.3,0.3,0.5,0.7,0.5,1.1v18.2
			C351.9,435.9,351.3,436.5,350.5,436.5z M324.7,434.9h25.7V417l-12.4,1.6c-0.1,0.7-0.9,5.3-2.5,6.4c-1.3,0.6-2.7,1-4.1,1.2
			c-2.8,0.6-6.3,1.4-6.7,2.6C324.1,430.4,324.5,434.2,324.7,434.9L324.7,434.9z"></path><polygon class="st0" points="386,422 401.4,422 421.7,349.6 390,342.8 		"></polygon><path class="st0" d="M386.8,329.8c0,0-31.2,7.1-41.8,14.4c-4.5,3.1-8.3,77-8.3,77l13.8,1.7c0,0,12.4-60.3,17.3-62.2
			s30.3-1.1,30.3-1.1S406.4,337.4,386.8,329.8L386.8,329.8z"></path><path class="st2" d="M443.5,280.9c0,0,12.5,20.3,11.7,24.9s-8.3,5.6-26.4,6.1l-11.5-33.7L443.5,280.9z"></path><path class="st0" d="M428.8,312.7c-0.3,0-0.6-0.2-0.7-0.5l-11.5-33.7c-0.1-0.2,0-0.5,0.1-0.7c0.2-0.2,0.4-0.3,0.7-0.3l26.1,2.7
			c0.2,0,0.4,0.2,0.6,0.4c1.3,2.1,12.6,20.7,11.8,25.4C455.1,311.3,446.6,312.2,428.8,312.7L428.8,312.7z M418.4,279.1l10.9,32
			c16.9-0.5,24.5-1.4,25.1-5.4c0.5-3.2-6.5-16-11.4-24.1L418.4,279.1z"></path><path class="st2" d="M349.5,283c0,0-12.1,16.1-10.7,22.9c1.8,9,29.6,6.7,29.6,6.7l6-29.5L349.5,283L349.5,283z"></path><path class="st0" d="M360.9,313.6c-8.6,0-21.7-1.1-22.9-7.6c-1.4-7,10.4-22.8,10.9-23.5c0.1-0.2,0.3-0.3,0.5-0.3h25
			c0.2,0,0.4,0.1,0.6,0.3c0.1,0.2,0.2,0.4,0.1,0.6l-6,29.5c-0.1,0.3-0.3,0.6-0.7,0.6C368,313.4,365,313.6,360.9,313.6z M349.8,283.8
			c-1.6,2.2-11.5,16.1-10.4,22c1.3,6.7,20.3,6.7,28.2,6.1l5.7-28.1L349.8,283.8z"></path><path class="st3" d="M376.5,244.8c-10.2,5.1-31.4,41.6-31.4,41.6l26.8,6.8l-4.2,56.6c0,0,1.7,9.7,32.8,9.7s31.3-3.8,31.3-3.8
			s8.9-36.4,6.4-60.2l16-2.7c0,0-18.3-39-25.5-43.8C422.2,244.6,381.1,242.5,376.5,244.8z"></path><path class="st2" d="M381.5,227.7c1.1,0.8,2.6,0.6,3.6-0.3"></path><path class="st0" d="M383.2,229c-0.7,0-1.5-0.2-2.1-0.6c-0.3-0.2-0.4-0.7-0.2-1c0.2-0.3,0.7-0.4,1-0.2c0.8,0.6,1.9,0.5,2.6-0.2
			c0.3-0.3,0.8-0.3,1.1,0c0.3,0.3,0.3,0.8,0,1.1C385,228.6,384.1,229,383.2,229z"></path><ellipse class="st0" transform="matrix(0.2588 -0.9659 0.9659 0.2588 77.5822 535.7019)" cx="387.9" cy="217.3" rx="2" ry="0.9"></ellipse></g></g><g id="Flow"><path class="st0" d="M74.3,171.1c-0.4,0-0.7-0.3-0.8-0.7c0,0,0,0,0,0V88.2c0-0.4,0.3-0.7,0.7-0.8c0,0,0,0,0,0h347.3
		c0.4,0,0.8,0.3,0.8,0.8v54.4c0,0.4-0.3,0.8-0.8,0.8s-0.8-0.3-0.8-0.8V88.9H75v81.4C75,170.8,74.7,171.1,74.3,171.1z"></path><path class="st0" d="M80.5,148.4l20.2,20.2c3.8,3.8,3.8,10,0,13.8l-20.2,20.2c-3.8,3.8-10,3.8-13.8,0l-20.2-20.2
		c-3.8-3.8-3.8-10,0-13.8l20.2-20.2C70.5,144.6,76.7,144.6,80.5,148.4z"></path><path class="st3" d="M80.5,142.3l20.2,20.2c3.8,3.8,3.8,10,0,13.8l-20.2,20.2c-3.8,3.8-10,3.8-13.8,0l-20.2-20.2
		c-3.8-3.8-3.8-10,0-13.8l20.2-20.2C70.5,138.5,76.7,138.5,80.5,142.3z"></path><path class="st0" d="M318.9,66.7h-43.7c-1.2,0-2.1,1-2.1,2.1c0,0.6,0.2,1.1,0.6,1.5L290,86.7c0.8,0.8,0.8,2.2,0,3L273.8,106
		c-0.8,0.8-0.8,2.2,0,3c0.4,0.4,0.9,0.6,1.5,0.6h43.7c0.6,0,1.1-0.2,1.5-0.6l19.3-19.3c0.8-0.8,0.8-2.2,0-3l-19.3-19.3
		C320.1,67,319.5,66.7,318.9,66.7z"></path><path class="st3" d="M324.8,66.7h-43.7c-1.2,0-2.1,1-2.1,2.1c0,0.6,0.2,1.1,0.6,1.5l16.3,16.3c0.8,0.8,0.8,2.2,0,3L279.6,106
		c-0.8,0.8-0.8,2.2,0,3c0.4,0.4,0.9,0.6,1.5,0.6h43.7c0.6,0,1.1-0.2,1.5-0.6l19.3-19.3c0.8-0.8,0.8-2.2,0-3l-19.3-19.3
		C325.9,67,325.4,66.7,324.8,66.7z"></path><circle class="st0" cx="147.9" cy="88.2" r="27.8"></circle><circle class="st3" cx="152.3" cy="88.2" r="27.8"></circle><path class="st0" d="M401.2,123.1h39.6c1.8,0,3.2,1.5,3.2,3.2v27.4c0,1.8-1.5,3.2-3.2,3.2h-39.6c-1.8,0-3.2-1.5-3.2-3.2v-27.4
		C397.9,124.5,399.4,123.1,401.2,123.1z"></path><path class="st3" d="M401.2,126.8h39.6c1.8,0,3.2,1.5,3.2,3.2v27.4c0,1.8-1.5,3.2-3.2,3.2h-39.6c-1.8,0-3.2-1.5-3.2-3.2v-27.4
		C397.9,128.3,399.4,126.8,401.2,126.8z"></path><rect class="st0" x="416.7" y="83.3" width="9.7" height="9.7"></rect><rect class="st0" x="68.8" y="83.3" width="9.7" height="9.7"></rect><rect class="st0" x="223.7" y="83.3" width="9.7" height="9.7"></rect></g><g id="Chair"><path class="st0" d="M397.1,257.4h13.5c17.9,0,32.3,14.5,32.3,32.3v34.7c0,3.6-3,6.6-6.6,6.6h-65c-3.6,0-6.6-3-6.6-6.6v-34.7
		C364.7,271.9,379.2,257.4,397.1,257.4L397.1,257.4z"></path><path class="st0" d="M369.8,358.3H433c2.8,0,5.1,2.3,5.1,5.1v1.7c0,2.8-2.3,5.1-5.1,5.1h-63.1c-2.8,0-5.1-2.3-5.1-5.1v-1.7
		C364.7,360.6,367,358.3,369.8,358.3z"></path><path class="st0" d="M403.8,303.1c0,0,3.1,22.6,0,36.8s-9.6,22.1-9.6,22.1h11c4.4-7.7,7.6-16,9.4-24.6c2.8-14.2,0-34.3,0-34.3
		L403.8,303.1L403.8,303.1z"></path><polygon class="st0" points="371.8,366.7 364.8,444.9 370.1,444.9 380.3,364.3 	"></polygon><polygon class="st0" points="430.2,366.7 437.2,444.9 431.9,444.9 421.7,364.3 	"></polygon><path class="st0" d="M437.2,445.5h-5.4c-0.3,0-0.6-0.3-0.6-0.6L421,364.4c0-0.2,0.1-0.4,0.2-0.6c0.2-0.1,0.4-0.2,0.6-0.1l8.5,2.4
		c0.3,0.1,0.5,0.3,0.5,0.6l7.1,78.1c0,0.2,0,0.4-0.2,0.5C437.6,445.4,437.4,445.5,437.2,445.5L437.2,445.5z"></path><path class="st2" d="M417.9,371h-48c-3.2,0-5.9-2.6-5.9-5.9c0,0,0,0,0,0v-1.7c0-3.2,2.6-5.9,5.9-5.9h27c0.4,0,0.8,0.3,0.8,0.8
		s-0.3,0.8-0.8,0.8h-27c-2.4,0-4.4,2-4.4,4.4v1.7c0,2.4,2,4.4,4.4,4.4h48c0.4,0,0.8,0.3,0.8,0.8S418.3,371,417.9,371z"></path><path class="st2" d="M402.7,365.7h-8.5c-0.4,0-0.8-0.3-0.8-0.8v-3c0-0.2,0.1-0.3,0.2-0.5c0.1-0.1,6.4-8,9.5-21.8s0-36.3,0-36.5
		c-0.1-0.4,0.2-0.8,0.6-0.9c0.4-0.1,0.8,0.2,0.9,0.6c0,0,0,0.1,0,0.1c0,0.2,3.1,23,0,37.1c-2.9,13-8.5,20.8-9.6,22.2v1.9h7.8
		c0.4,0,0.8,0.3,0.8,0.8S403.1,365.7,402.7,365.7L402.7,365.7z"></path><path class="st2" d="M378.2,329c-3.8,0-6.9-3.1-6.9-6.9l0,0v-32c0-14.4,10.1-26.9,24.2-30c0.4-0.1,0.8,0.2,0.9,0.6
		c0.1,0.4-0.2,0.8-0.6,0.9c0,0,0,0,0,0c-13.4,3-22.9,14.8-23,28.5v32.1c0,3,2.4,5.3,5.4,5.4c0.4,0,0.8,0.3,0.8,0.8
		S378.5,329,378.2,329L378.2,329z"></path></g><g id="Laptop"><polygon class="st2" points="149.5,317.8 120.4,319.9 117.6,321.7 147.3,321.7 	"></polygon><path class="st0" d="M147.3,322.4h-29.7c-0.4,0-0.8-0.3-0.8-0.7c0-0.3,0.1-0.5,0.4-0.6l2.8-1.8c0.1-0.1,0.2-0.1,0.3-0.1l29.1-2.1
		c0.4,0,0.8,0.3,0.8,0.7c0,0.1,0,0.3-0.1,0.4l-2.2,3.8C147.8,322.3,147.5,322.4,147.3,322.4z M120.2,320.9h26.6l1.3-2.2l-27.5,2
		L120.2,320.9z"></path><polygon class="st2" points="145.8,321.7 156.4,286.1 201.1,286.1 191.6,321.4 	"></polygon><path class="st0" d="M145.8,322.4c-0.4,0-0.8-0.3-0.8-0.7c0-0.1,0-0.2,0-0.3l10.6-35.5c0.1-0.3,0.4-0.5,0.7-0.5h44.7
		c0.2,0,0.5,0.1,0.6,0.3c0.1,0.2,0.2,0.4,0.1,0.6l-9.5,35.2c-0.1,0.3-0.4,0.6-0.7,0.6L145.8,322.4L145.8,322.4z M157,286.9l-10.2,34
		l44.2-0.3l9.1-33.8L157,286.9z"></path><ellipse class="st0" transform="matrix(0.7768 -0.6297 0.6297 0.7768 -151.3214 177.6134)" cx="174.9" cy="302.3" rx="5.8" ry="3.8"></ellipse></g></svg>